<svg width="132" height="38" viewBox="0 0 132 38" fill="none" xmlns="http://www.w3.org/2000/svg">
<g clip-path="url(#clip0_2_61)" filter="url(#filter0_d_2_61)">
<path d="M125.75 25.9057C125.213 25.9108 124.701 26.1282 124.324 26.5102C123.948 26.8923 123.738 27.4078 123.74 27.9442C123.743 28.4806 123.958 28.9942 124.338 29.3726C124.718 29.751 125.233 29.9634 125.769 29.9634C126.306 29.9634 126.82 29.751 127.201 29.3726C127.581 28.9942 127.796 28.4806 127.798 27.9442C127.801 27.4078 127.591 26.8923 127.214 26.5102C126.838 26.1282 126.325 25.9108 125.789 25.9057H125.75ZM125.75 29.7311C125.398 29.737 125.052 29.6384 124.757 29.4478C124.461 29.2572 124.228 28.9832 124.088 28.6604C123.948 28.3376 123.907 27.9805 123.97 27.6343C124.033 27.2881 124.197 26.9683 124.441 26.7154C124.686 26.4625 125 26.2878 125.344 26.2134C125.688 26.139 126.046 26.1683 126.374 26.2975C126.701 26.4267 126.982 26.6501 127.183 26.9394C127.383 27.2286 127.493 27.5708 127.499 27.9226V27.9525C127.509 28.414 127.335 28.8606 127.016 29.1939C126.696 29.5273 126.258 29.7202 125.796 29.7302H125.75L125.75 29.7311ZM117.962 25.3514H113.553V18.4472C113.553 16.8009 113.524 14.6815 111.26 14.6815C108.964 14.6815 108.613 16.4753 108.613 18.3274V25.3509H104.204V11.1532H108.436V13.0935H108.495C108.919 12.3693 109.531 11.7735 110.266 11.3697C111.002 10.9658 111.833 10.7689 112.671 10.8001C117.14 10.8001 117.964 13.7392 117.964 17.5628L117.962 25.3514ZM99.2295 9.21248C98.7235 9.21257 98.2288 9.06261 97.808 8.78157C97.3872 8.50052 97.0593 8.10101 96.8655 7.63356C96.6718 7.16611 96.6211 6.65171 96.7197 6.15541C96.8183 5.65911 97.0619 5.20321 97.4196 4.84534C97.7774 4.48748 98.2332 4.24374 98.7294 4.14493C99.2257 4.04612 99.7401 4.0967 100.208 4.29025C100.675 4.48381 101.075 4.81165 101.356 5.23233C101.637 5.653 101.787 6.14762 101.787 6.65362C101.787 6.9896 101.721 7.32229 101.593 7.63271C101.464 7.94314 101.276 8.22521 101.038 8.46282C100.801 8.70043 100.519 8.88893 100.208 9.01756C99.8981 9.14619 99.5655 9.21242 99.2295 9.21248V9.21248ZM101.434 25.3514H97.0205V11.1532H101.434V25.3514ZM120.16 0.00159915H94.8052C94.2297 -0.00489506 93.6752 0.217345 93.2635 0.619485C92.8518 1.02162 92.6166 1.57076 92.6096 2.14623V27.6058C92.6164 28.1815 92.8514 28.731 93.2631 29.1336C93.6748 29.5361 94.2294 29.7588 94.8052 29.7527H120.16C120.736 29.7599 121.293 29.5379 121.706 29.1353C122.119 28.7328 122.356 28.1827 122.364 27.6058V2.14439C122.356 1.56778 122.119 1.01802 121.706 0.615893C121.292 0.213763 120.736 -0.00784255 120.16 -0.00023779V0.00159915ZM80.6102 14.58C78.4059 14.58 77.0833 16.0519 77.0833 18.1965C77.0833 20.3411 78.4055 21.8144 80.6102 21.8144C82.815 21.8144 84.1404 20.3448 84.1404 18.1965C84.1404 16.0482 82.8173 14.58 80.6102 14.58V14.58ZM88.1991 25.3431H84.1404V23.4603H84.0802C83.571 24.1451 82.9106 24.7032 82.1504 25.0909C81.3901 25.4787 80.5506 25.6857 79.6973 25.6958C75.4613 25.6958 72.671 22.6387 72.671 18.3154C72.671 14.3449 75.1403 10.699 79.1995 10.699C81.024 10.699 82.7282 11.1982 83.728 12.5819H83.7858V4.39786H88.1986L88.1991 25.3431ZM67.0104 16.5956C67.0189 16.2379 66.9546 15.8823 66.8216 15.5502C66.6885 15.2181 66.4894 14.9164 66.2363 14.6635C65.9833 14.4106 65.6815 14.2117 65.3493 14.0789C65.0171 13.9461 64.6614 13.882 64.3037 13.8907C63.5334 13.8428 62.7751 14.0995 62.1923 14.6055C61.6095 15.1115 61.2489 15.8262 61.1883 16.5956H67.0104ZM70.745 22.8871C70.0124 23.7755 69.0913 24.4899 68.0486 24.9784C67.0059 25.467 65.8676 25.7175 64.7161 25.7119C60.3074 25.7119 56.7778 22.7691 56.7778 18.2121C56.7778 13.6551 60.307 10.7137 64.7161 10.7137C68.8368 10.7137 71.4209 13.6528 71.4209 18.2121V19.5944H61.1883C61.3157 20.3784 61.7221 21.0898 62.3327 21.5978C62.9432 22.1057 63.7168 22.3759 64.5108 22.3585C65.1383 22.3547 65.7549 22.1939 66.3044 21.8909C66.8539 21.5878 67.3189 21.1522 67.6571 20.6236L70.745 22.8871ZM26.9183 11.1495H31.152V13.0898H31.2121C31.635 12.3653 32.2467 11.7693 32.982 11.3653C33.7172 10.9614 34.5483 10.7648 35.3866 10.7964C39.8572 10.7964 40.6802 13.7378 40.6802 17.5591V25.345H36.2715V18.4422C36.2715 16.7945 36.2412 14.6765 33.9754 14.6765C31.6838 14.6765 31.3302 16.4707 31.3302 18.3223V25.3431H26.9215L26.9183 11.1495ZM42.9158 4.39924H47.3244V16.9203L52.3209 11.1417H57.7261L51.9397 17.7148L57.6044 25.3518H52.0633L47.3832 18.3338H47.3253V25.3509H42.9167L42.9158 4.39924ZM20.0651 11.1482H24.4738V25.3459H20.0651V11.1482ZM22.2695 4.08971C22.7753 4.0898 23.2697 4.23987 23.6902 4.52095C24.1107 4.80202 24.4384 5.20148 24.6319 5.66881C24.8254 6.13613 24.876 6.65034 24.7773 7.14641C24.6785 7.64249 24.4349 8.09814 24.0772 8.45577C23.7196 8.81339 23.2639 9.05692 22.7678 9.15557C22.2717 9.25421 21.7575 9.20354 21.2902 9.00995C20.8229 8.81637 20.4235 8.48857 20.1425 8.068C19.8615 7.64744 19.7115 7.153 19.7115 6.64719C19.7115 6.3113 19.7777 5.9787 19.9062 5.66838C20.0348 5.35806 20.2232 5.07611 20.4607 4.83862C20.6983 4.60113 20.9803 4.41275 21.2906 4.28426C21.6009 4.15576 21.9336 4.08965 22.2695 4.08971V4.08971ZM4.95123 4.40245H9.54037V21.1186H18.0362V25.3537H4.95123V4.40245ZM126.072 28.0632C126.147 28.0639 126.222 28.0492 126.292 28.0198C126.361 27.9904 126.424 27.9471 126.476 27.8924C126.528 27.8378 126.569 27.773 126.595 27.7021C126.621 27.6312 126.632 27.5558 126.627 27.4804C126.627 27.0671 126.378 26.8696 125.866 26.8696H125.04V29.0335H125.351V28.0903H125.733L125.742 28.1017L126.334 29.0335H126.667L126.029 28.0691L126.072 28.0632ZM125.712 27.8464H125.352V27.1148H125.809C126.045 27.1148 126.314 27.1534 126.314 27.4625C126.314 27.8179 126.041 27.8464 125.71 27.8464" fill="white" fill-opacity="0.5"/>
</g>
<defs>
<filter id="filter0_d_2_61" x="0.951233" y="0" width="130.847" height="38" filterUnits="userSpaceOnUse" color-interpolation-filters="sRGB">
<feFlood flood-opacity="0" result="BackgroundImageFix"/>
<feColorMatrix in="SourceAlpha" type="matrix" values="0 0 0 0 0 0 0 0 0 0 0 0 0 0 0 0 0 0 127 0" result="hardAlpha"/>
<feOffset dy="4"/>
<feGaussianBlur stdDeviation="2"/>
<feComposite in2="hardAlpha" operator="out"/>
<feColorMatrix type="matrix" values="0 0 0 0 0 0 0 0 0 0 0 0 0 0 0 0 0 0 0.25 0"/>
<feBlend mode="normal" in2="BackgroundImageFix" result="effect1_dropShadow_2_61"/>
<feBlend mode="normal" in="SourceGraphic" in2="effect1_dropShadow_2_61" result="shape"/>
</filter>
<clipPath id="clip0_2_61">
<rect width="122.847" height="30" fill="white" transform="translate(4.95123)"/>
</clipPath>
</defs>
</svg>
